# xmcd
#
# Track frame offsets: 
#        300
#        22656
#        45604
#        63796
#        81431
#        102206
#        124854
#        150072
#        168751
#
# Disc length: 2643 seconds
#
# Revision: 10
# Processed by: cddbd v1.5.2PL0 Copyright (c) Steve Scherf et al.
# Submitted via: ExactAudioCopy v1.0b1
#
DISCID=5a0a4f09
DTITLE=Collins, Albert with Robert Cray and Johnny Copeland - Showdown
DTITLE=!
DYEAR=1985
DGENRE=Electric Blues
TTITLE0=T-Bone Shuffle
TTITLE1=The Moon Is Full
TTITLE2=Lion's Den
TTITLE3=She's Into Something
TTITLE4=Bring Your Fine Self Home
TTITLE5=Black Cat Bone
TTITLE6=The Dream
TTITLE7=Albert's Alley
TTITLE8=Blackjack
EXTD=YEAR: 1985
EXTT0=
EXTT1=
EXTT2=
EXTT3=
EXTT4=
EXTT5=
EXTT6=
EXTT7=
EXTT8=
PLAYORDER=
